<svg width="103" height="104" viewBox="0 0 103 104" fill="none" xmlns="http://www.w3.org/2000/svg">
<path d="M60.9143 12.4583C55.6524 12.4583 50.606 14.5699 46.8853 18.3284C43.1647 22.0869 41.0744 27.1846 41.0744 32.5V43.6583H30.4574C29.9243 43.6583 29.4922 44.0949 29.4922 44.6333V59.3667C29.4922 59.9051 29.9243 60.3417 30.4574 60.3417H41.0744V90.5667C41.0744 91.1051 41.5065 91.5417 42.0396 91.5417H56.6246C57.1576 91.5417 57.5897 91.1051 57.5897 90.5667V60.3417H68.3008C68.7437 60.3417 69.1297 60.0372 69.2372 59.6031L72.8834 44.8698C73.0357 44.2544 72.575 43.6583 71.947 43.6583H57.5897V32.5C57.5897 31.6093 57.94 30.7551 58.5635 30.1253C59.1869 29.4955 60.0325 29.1417 60.9143 29.1417H72.0675C72.6005 29.1417 73.0327 28.7051 73.0327 28.1667V13.4333C73.0327 12.8949 72.6005 12.4583 72.0675 12.4583H60.9143Z" fill="black"/>
</svg>
