<svg width="104" height="104" viewBox="0 0 104 104" fill="none" xmlns="http://www.w3.org/2000/svg">
<path d="M52.4293 37.9167C44.7296 37.9167 38.4878 44.222 38.4878 52C38.4878 59.778 44.7296 66.0833 52.4293 66.0833C60.129 66.0833 66.3709 59.778 66.3709 52C66.3709 44.222 60.129 37.9167 52.4293 37.9167Z" fill="black"/>
<path fill-rule="evenodd" clip-rule="evenodd" d="M29.9922 13.353C44.7836 11.6831 60.0752 11.6831 74.8666 13.353C83.0101 14.2724 89.5785 20.7542 90.5343 29.0094C92.3029 44.2844 92.3029 59.7156 90.5343 74.9906C89.5785 83.2458 83.0101 89.7275 74.8666 90.647C60.0752 92.3169 44.7836 92.3169 29.9922 90.647C21.8486 89.7275 15.2803 83.2458 14.3245 74.9906C12.5559 59.7156 12.5559 44.2844 14.3245 29.0094C15.2803 20.7542 21.8486 14.2724 29.9922 13.353ZM73.8778 26C71.5087 26 69.5881 27.9401 69.5881 30.3333C69.5881 32.7266 71.5087 34.6667 73.8778 34.6667C76.247 34.6667 78.1676 32.7266 78.1676 30.3333C78.1676 27.9401 76.247 26 73.8778 26ZM32.0532 52C32.0532 40.6321 41.1759 31.4167 52.4293 31.4167C63.6827 31.4167 72.8054 40.6321 72.8054 52C72.8054 63.3679 63.6827 72.5833 52.4293 72.5833C41.1759 72.5833 32.0532 63.3679 32.0532 52Z" fill="black"/>
</svg>
