<svg width="416" height="392" viewBox="0 0 416 392" fill="none" xmlns="http://www.w3.org/2000/svg">
<path d="M138.9 168.961C130.775 168.961 122.877 166.332 116.887 161.418C109.384 155.263 107.652 138.269 117.098 121.18C133.846 90.8744 179.716 25.3712 294.232 59.3429C315.785 65.7374 335.626 76.103 352.301 89.8958C377.836 111.016 409.553 148.072 414.712 204.304L415.17 193.243C418.025 87.8 321.75 0.251007 207.398 0.251007C93.0463 0.251007 -11.479 91.5107 1.05024 193.243C11.0455 274.402 85.1886 275.04 199.543 275.04V168.961H138.9Z" fill="url(#paint0_linear_30_16)"/>
<path d="M26.0823 284.57C25.6952 285.152 25.667 285.736 26.0002 286.311C25.9274 286.345 25.8899 286.361 25.8172 286.397C24.9561 284.91 24.5337 284.158 23.7055 282.646C23.7712 282.598 23.804 282.573 23.8697 282.523C23.9472 282.651 23.9871 282.714 24.0668 282.842C24.2498 283.148 24.4657 283.329 24.7121 283.379C24.9584 283.43 25.1743 283.346 25.3596 283.127C26.2512 282.05 26.6994 281.517 27.605 280.452C26.6243 278.663 25.6764 276.857 24.766 275.038C23.3489 275.03 22.6379 275.021 21.2161 274.994C20.8876 275.023 20.6647 275.158 20.5497 275.397C20.4348 275.637 20.4606 275.939 20.6318 276.309C20.6764 276.412 20.6975 276.464 20.7421 276.567C20.667 276.598 20.6295 276.613 20.5521 276.643C19.9233 275.393 19.6136 274.765 19.0059 273.499C19.0809 273.469 19.1208 273.455 19.1959 273.425C19.6042 274.106 20.1274 274.488 20.7609 274.572C25.1766 274.687 29.583 274.723 34.0011 274.679C34.0668 274.803 34.0996 274.866 34.1653 274.99C31.399 278.142 28.7102 281.33 26.0823 284.57ZM25.0898 275.03C26.148 277.126 26.6923 278.163 27.8092 280.213C29.3296 278.455 30.8805 276.714 32.4572 274.998C30.003 275.044 27.544 275.055 25.0898 275.03Z" fill="black" stroke="black" stroke-width="2" stroke-miterlimit="10"/>
<path d="M39.7258 304.188C39.5568 305.238 39.4818 305.874 39.4888 306.093C39.4935 306.311 39.5991 306.553 39.8009 306.819C39.7211 306.87 39.6788 306.895 39.5991 306.943C39.4724 306.778 39.4067 306.694 39.28 306.526C38.8459 305.956 38.6066 305.469 38.555 305.066C38.5033 304.663 38.569 303.825 38.7661 302.554C39.3363 299.268 39.7211 297.506 39.7844 297.216C39.2143 296.397 38.9304 295.986 38.3696 295.158C38.2054 294.915 38.1209 294.793 37.9567 294.547C37.9895 294.595 38.02 294.656 38.0458 294.728C38.0716 294.797 38.0716 294.917 38.0435 295.083C38.0177 295.249 37.9262 295.383 37.776 295.484C36.3424 296.269 35.6244 296.662 34.1908 297.447C33.9539 297.575 33.8084 297.764 33.7497 298.014C33.6911 298.262 33.7427 298.518 33.9046 298.774C33.9398 298.84 33.9562 298.871 33.9914 298.934C33.921 298.974 33.8858 298.993 33.8154 299.033C32.9356 297.754 32.5039 297.109 31.6475 295.809C31.7178 295.771 31.7554 295.752 31.8258 295.715C31.8727 295.773 31.8962 295.801 31.9431 295.86C32.1214 296.11 32.349 296.269 32.6212 296.338C32.8933 296.408 33.1491 296.378 33.3861 296.25C36.3401 294.658 39.2964 293.067 42.2504 291.475C42.4874 291.347 42.6399 291.162 42.7056 290.922C42.7713 290.683 42.7314 290.44 42.5836 290.192C42.5531 290.131 42.5366 290.099 42.5038 290.038C42.5625 290.007 42.5906 289.992 42.6493 289.961C43.9726 291.933 44.6507 292.907 46.0326 294.826C46.7952 295.906 47.1753 296.943 47.1729 297.953C47.1706 298.963 46.7788 299.709 45.9857 300.186C45.317 300.587 44.5333 300.656 43.6324 300.383C42.7314 300.11 41.8609 299.549 41.0303 298.699C41.0209 298.686 41.0139 298.674 41.0045 298.663C40.9599 298.621 40.9107 298.583 40.8825 298.554C40.8567 298.524 40.8309 298.48 40.8051 298.445C40.5986 298.205 40.4977 298.086 40.2912 297.844C40.5892 298.287 40.6784 298.823 40.5634 299.453C40.5681 299.459 40.5704 299.463 40.5775 299.472C40.364 300.505 40.0636 302.069 39.7258 304.188ZM40.3851 297.563C41.0327 298.485 41.7952 299.066 42.6586 299.31C43.5221 299.551 44.3316 299.446 45.0871 298.999C45.8215 298.564 46.2485 297.964 46.3752 297.199C46.5019 296.435 46.3048 295.685 45.7816 294.946C44.8313 293.598 44.3621 292.917 43.44 291.546C43.4611 291.601 43.4845 291.662 43.508 291.729C43.5315 291.798 43.5315 291.912 43.508 292.073C43.4845 292.233 43.4024 292.361 43.2593 292.456C41.4081 293.47 40.4813 293.976 38.63 294.99C39.3246 296.025 39.6765 296.54 40.3851 297.563Z" fill="black" stroke="black" stroke-width="2" stroke-miterlimit="10"/>
<path d="M65.2867 318.082C65.1108 318.277 64.9536 318.441 64.8175 318.575C64.6814 318.71 64.5453 318.842 64.4045 318.972C64.2638 319.102 64.1371 319.22 64.0268 319.327C63.9142 319.434 63.8532 319.501 63.8461 319.527C63.7968 319.478 63.7734 319.453 63.7241 319.405C63.8227 319.086 63.8719 318.928 63.9705 318.609C64.015 318.466 64.0432 318.317 64.0573 318.159C64.0714 318.004 64.0667 317.845 64.0432 317.683C64.0197 317.521 63.9822 317.362 63.9282 317.206C63.8766 317.049 63.8039 316.9 63.7147 316.755C63.6256 316.61 63.5247 316.482 63.4167 316.368C62.3351 315.243 61.8001 314.676 60.7396 313.527C60.7584 313.565 60.7889 313.619 60.8264 313.687C60.864 313.754 60.8851 313.869 60.8851 314.027C60.8851 314.186 60.817 314.325 60.6833 314.443C57.9686 316.473 55.254 318.506 52.5393 320.537C52.3258 320.696 52.2108 320.9 52.1897 321.15C52.1686 321.4 52.2554 321.639 52.4548 321.866C52.4994 321.923 52.5205 321.952 52.5651 322.009C52.5018 322.057 52.4713 322.08 52.4079 322.128C51.3591 321.013 50.8406 320.451 49.8105 319.314C49.8739 319.268 49.9067 319.245 49.9724 319.197C50.0264 319.247 50.0546 319.27 50.1085 319.321C50.2493 319.459 50.4065 319.558 50.5754 319.621C50.7444 319.682 50.9203 319.703 51.1034 319.68C51.2864 319.657 51.4436 319.596 51.5797 319.495C54.4891 317.349 57.4008 315.203 60.3102 313.054C59.428 312.091 58.9893 311.605 58.1235 310.625C57.849 310.314 57.4947 310.075 57.0606 309.904C56.6242 309.734 56.1925 309.667 55.7631 309.703C55.4018 309.736 55.2188 309.751 54.8574 309.785C54.8058 309.736 54.78 309.711 54.7307 309.663C54.9372 309.554 55.2727 309.371 55.7326 309.113C56.1925 308.854 56.4717 308.699 56.5702 308.649C56.5655 308.642 56.5609 308.638 56.5562 308.632C56.6101 308.604 56.6359 308.592 56.6899 308.565C59.4937 311.778 62.382 314.909 65.3736 317.983C65.3384 318.025 65.3219 318.044 65.2867 318.082Z" fill="black" stroke="black" stroke-width="2" stroke-miterlimit="10"/>
<path d="M76.5373 328.668C76.3144 328.491 76.068 328.408 75.7982 328.418C75.5284 328.426 75.2984 328.521 75.106 328.699C72.7058 330.917 70.3031 333.137 67.9029 335.354C67.7105 335.533 67.6166 335.745 67.6237 335.993C67.6307 336.24 67.7433 336.467 67.9615 336.671C68.0108 336.723 68.0366 336.749 68.0859 336.801C68.0296 336.856 67.9991 336.881 67.9428 336.936C66.786 335.942 66.2112 335.44 65.0732 334.426C65.1319 334.374 65.1601 334.346 65.2187 334.294C65.2774 334.338 65.3079 334.359 65.3665 334.401C65.5988 334.592 65.8546 334.689 66.1338 334.689C66.4106 334.689 66.6453 334.6 66.84 334.424C69.259 332.221 71.6757 330.016 74.0948 327.813C74.2262 327.694 74.313 327.557 74.3552 327.404C74.3974 327.25 74.3951 327.099 74.3505 326.95C74.3059 326.801 74.2191 326.66 74.0901 326.53C74.0455 326.48 74.022 326.454 73.9774 326.406C74.0361 326.354 74.0643 326.326 74.1229 326.274C75.1952 327.229 75.7348 327.7 76.8235 328.634C76.7672 328.689 76.7367 328.714 76.6804 328.769C76.6217 328.727 76.5936 328.708 76.5373 328.668Z" fill="black" stroke="black" stroke-width="2" stroke-miterlimit="10"/>
<path d="M87.7478 351.224C87.9402 352.198 88.081 352.78 88.1584 352.971C88.2335 353.162 88.4118 353.349 88.6887 353.532C88.63 353.603 88.6018 353.637 88.5432 353.708C88.3696 353.593 88.2827 353.536 88.1068 353.421C87.5765 353.07 87.2199 352.746 87.0345 352.455C86.8491 352.161 86.6661 351.623 86.4902 350.84C85.7417 350.544 85.005 350.149 84.2823 349.659C84.2753 349.655 84.2706 349.651 84.2635 349.647C83.2969 348.958 82.5226 348.196 81.9454 347.366C81.3682 346.537 81.0186 345.724 80.8942 344.932C80.7699 344.141 80.8239 343.374 81.0538 342.637C81.2837 341.9 81.6779 341.236 82.234 340.648C82.7901 340.06 83.4517 339.598 84.2189 339.264C84.9862 338.928 85.805 338.735 86.6779 338.681C87.5507 338.624 88.4751 338.748 89.4606 339.046C90.446 339.344 91.3892 339.813 92.3043 340.451C92.3113 340.455 92.3137 340.457 92.3207 340.464C93.2358 341.102 93.9725 341.808 94.5309 342.587C95.0894 343.366 95.4436 344.137 95.5938 344.905C95.7416 345.674 95.7275 346.43 95.5469 347.173C95.3662 347.919 95.0237 348.605 94.5169 349.233C93.7872 350.136 92.8275 350.779 91.6262 351.153C90.4249 351.52 89.1298 351.547 87.7478 351.224ZM85.8614 350.195C86.0209 350.262 86.2016 350.336 86.4057 350.42C86.3799 350.289 86.3517 350.128 86.3189 349.937C86.2673 349.632 86.2203 349.361 86.1781 349.126C86.1359 348.891 86.1007 348.7 86.0725 348.551C86.0444 348.404 86.0209 348.271 86.0021 348.16C85.9834 348.047 85.9646 347.961 85.9505 347.9C85.9341 347.839 85.9224 347.78 85.913 347.723C85.9036 347.667 85.8942 347.614 85.8872 347.566C85.8801 347.517 85.8707 347.461 85.859 347.396C85.8473 347.331 85.8379 347.247 85.8332 347.142C85.8567 347.158 85.8919 347.175 85.9364 347.192C85.981 347.209 86.0678 347.255 86.1969 347.331C86.3259 347.406 86.4409 347.488 86.5441 347.572C86.5559 347.58 86.5582 347.589 86.5512 347.597C86.5582 347.601 86.5629 347.606 86.5699 347.61C86.6309 347.652 86.6755 347.69 86.7037 347.725C86.7154 347.734 86.7248 347.746 86.7295 347.763C86.7365 347.767 86.7412 347.772 86.7483 347.776C86.8421 347.87 86.9289 347.973 87.0087 348.084C87.004 348.091 87.0017 348.093 86.997 348.097C87.18 348.381 87.2973 348.675 87.3489 348.977C87.4263 349.454 87.5343 350.058 87.675 350.789C88.6699 350.995 89.6272 350.995 90.5446 350.789C90.6666 350.758 90.6924 350.691 90.6243 350.59C90.5892 350.55 90.5704 350.529 90.5352 350.489C90.4789 350.397 90.5 350.334 90.6032 350.302C91.6638 349.899 92.546 349.263 93.2522 348.402C94.2283 347.215 94.6576 345.94 94.5638 344.59C94.4535 343.017 93.6487 341.719 92.1401 340.667C92.133 340.663 92.1307 340.661 92.1236 340.655C91.7177 340.371 91.2954 340.138 90.8543 339.955C90.8426 339.947 90.8308 339.939 90.8191 339.93C89.2987 339.225 87.7994 339.008 86.3025 339.288C86.1805 339.315 86.15 339.38 86.211 339.483C86.2438 339.525 86.2579 339.544 86.2907 339.586C86.34 339.68 86.3119 339.741 86.211 339.766C85.1387 340.13 84.2143 340.722 83.4447 341.551C82.4006 342.677 81.8938 343.929 81.9548 345.306C82.0252 346.913 82.8675 348.297 84.47 349.414C84.477 349.418 84.4817 349.422 84.4888 349.426C84.9205 349.727 85.3686 349.974 85.8332 350.166C85.8355 350.178 85.8496 350.187 85.8614 350.195Z" fill="black" stroke="black" stroke-width="2" stroke-miterlimit="10"/>
<path d="M116.636 355.168C117.722 355.72 118.266 355.991 119.36 356.529C119.296 356.583 119.266 356.608 119.202 356.663C119.137 356.638 119.106 356.627 119.041 356.602C118.818 356.506 118.599 356.468 118.386 356.491C117.989 356.512 117.684 356.69 117.476 357.022C116.185 359.082 114.895 361.142 113.604 363.204C112.891 364.343 111.727 364.815 110.106 364.597C109.728 364.546 109.327 364.456 108.902 364.328C108.477 364.198 108.029 364.024 107.562 363.805C107.342 363.702 107.14 363.601 106.952 363.503C105.258 362.606 104.2 361.627 103.773 360.596C103.346 359.565 103.485 358.566 104.17 357.595C105.507 355.703 106.844 353.811 108.182 351.919C108.283 351.776 108.337 351.627 108.341 351.472C108.348 351.316 108.313 351.169 108.236 351.033C108.161 350.896 108.043 350.779 107.891 350.678C107.837 350.638 107.809 350.619 107.752 350.579C107.797 350.516 107.821 350.485 107.865 350.424C109.113 351.136 109.74 351.487 111.002 352.175C110.958 352.238 110.936 352.27 110.894 352.333C110.88 352.324 110.871 352.32 110.857 352.312C110.08 351.885 109.693 351.671 108.921 351.239C108.977 351.279 109.003 351.298 109.059 351.335C109.301 351.484 109.447 351.676 109.498 351.909C109.55 352.142 109.503 352.364 109.357 352.574C108.034 354.475 106.711 356.375 105.39 358.274C105.31 358.389 105.237 358.507 105.169 358.629C105.165 358.635 105.162 358.637 105.16 358.643C104.646 359.458 104.562 360.265 104.918 361.067C104.925 361.071 104.93 361.073 104.937 361.077C105.317 361.892 106.134 362.638 107.386 363.299C107.6 363.412 107.816 363.52 108.036 363.62C109.308 364.196 110.401 364.406 111.307 364.263C112.21 364.12 112.886 363.685 113.337 362.971C114.615 360.936 115.894 358.904 117.173 356.869C117.332 356.615 117.368 356.35 117.278 356.081C117.189 355.81 116.997 355.594 116.699 355.43C116.633 355.39 116.603 355.369 116.537 355.329C116.575 355.264 116.593 355.233 116.636 355.168Z" fill="black" stroke="black" stroke-width="2" stroke-miterlimit="10"/>
<path d="M134.271 373.677C134.322 373.696 134.346 373.707 134.397 373.726C134.292 373.881 134.102 374.135 133.825 374.49C133.55 374.843 133.365 375.082 133.273 375.206C133.264 375.202 133.262 375.202 133.252 375.198C133.224 375.238 133.208 375.259 133.179 375.298C130.106 374.12 127.06 372.896 124.031 371.626C124.066 371.558 124.085 371.525 124.12 371.457C124.191 371.481 124.226 371.491 124.296 371.514C124.58 371.623 124.85 371.634 125.108 371.55C125.366 371.466 125.554 371.313 125.671 371.088C127.147 368.297 128.621 365.506 130.096 362.715C130.176 362.562 130.209 362.409 130.195 362.253C130.181 362.098 130.127 361.957 130.033 361.831C129.939 361.705 129.81 361.6 129.646 361.518C129.587 361.485 129.557 361.47 129.496 361.436C129.531 361.369 129.55 361.335 129.585 361.268C132.391 362.465 135.225 363.603 138.09 364.685C137.764 365.374 137.6 365.718 137.271 366.409C137.215 366.388 137.187 366.378 137.131 366.357C137.119 366.241 137.112 366.184 137.1 366.071C137.072 365.632 136.889 365.21 136.556 364.801C136.223 364.391 135.819 364.093 135.34 363.906C133.89 363.337 133.168 363.045 131.729 362.451C131.727 362.457 131.725 362.459 131.722 362.465C131.469 362.36 131.342 362.308 131.091 362.203C131.131 362.22 131.176 362.247 131.227 362.287C131.279 362.327 131.342 362.413 131.417 362.543C131.492 362.673 131.511 362.812 131.469 362.955C130.636 364.557 130.221 365.359 129.388 366.961C130.599 367.461 131.206 367.707 132.424 368.19C132.614 368.265 132.818 368.324 133.034 368.366C133.25 368.408 133.452 368.429 133.639 368.427C133.827 368.427 134.005 368.408 134.179 368.371C134.35 368.333 134.486 368.278 134.587 368.207C134.644 368.169 134.672 368.152 134.728 368.114C134.794 368.139 134.827 368.152 134.892 368.177C134.503 368.982 134.308 369.385 133.919 370.189C133.839 370.151 133.799 370.132 133.719 370.095C133.71 370.032 133.705 370.002 133.696 369.939C133.672 369.649 133.527 369.362 133.257 369.08C132.987 368.797 132.656 368.578 132.26 368.421C131.04 367.938 130.432 367.692 129.219 367.19C129.217 367.197 129.214 367.199 129.212 367.205C128.951 367.098 128.822 367.043 128.562 366.934C128.576 366.94 128.595 366.951 128.618 366.968C128.642 366.984 128.684 367.016 128.74 367.064C128.797 367.113 128.846 367.163 128.883 367.218C128.921 367.27 128.951 367.339 128.975 367.423C128.998 367.507 128.994 367.594 128.966 367.68C127.989 369.557 127.501 370.498 126.525 372.375C128.119 373.032 128.916 373.356 130.523 373.984C130.861 374.116 131.232 374.2 131.636 374.232C132.037 374.265 132.44 374.244 132.842 374.171C133.243 374.097 133.607 373.982 133.93 373.822C134.066 373.765 134.134 373.736 134.271 373.677Z" fill="black" stroke="black" stroke-width="2" stroke-miterlimit="10"/>
<path d="M177.201 380.895C178.39 381.384 179.338 381.995 180.035 382.713C180.732 383.432 181.023 384.116 180.896 384.769C180.727 385.632 180.155 386.281 179.167 386.703C178.182 387.126 177.018 387.222 175.695 386.989C174.686 386.811 173.686 386.544 172.696 386.189C171.708 385.834 170.955 385.469 170.437 385.099C170.615 384.389 170.704 384.032 170.882 383.322C170.962 383.339 171.002 383.346 171.082 383.362C171.103 383.402 171.129 383.482 171.162 383.604C171.194 383.726 171.218 383.812 171.237 383.86C171.384 384.326 171.675 384.774 172.112 385.198C172.548 385.622 173.041 385.954 173.564 386.139C174.362 386.42 175.124 386.596 175.756 386.71C176.807 386.897 177.724 386.827 178.496 386.51C179.268 386.193 179.718 385.693 179.855 385.019C179.963 384.488 179.643 383.896 178.909 383.236C178.177 382.577 177.196 381.993 175.974 381.489C174.822 381.015 173.911 380.42 173.259 379.713C172.605 379.005 172.36 378.348 172.511 377.743C172.736 376.844 173.332 376.18 174.291 375.746C175.249 375.311 176.345 375.208 177.588 375.433C178.252 375.552 178.963 375.76 179.723 376.054C180.483 376.348 181.11 376.665 181.6 377.008C181.457 377.724 181.384 378.083 181.241 378.801C181.187 378.799 181.161 378.799 181.108 378.797C180.934 378.331 180.847 378.098 180.678 377.629C180.596 377.375 180.443 377.13 180.221 376.892C179.998 376.655 179.747 376.466 179.467 376.327C178.752 376.023 178.1 375.815 177.504 375.708C176.528 375.531 175.669 375.611 174.92 375.951C174.172 376.292 173.705 376.821 173.529 377.545C173.412 378.028 173.691 378.587 174.378 379.219C175.066 379.847 176.016 380.406 177.201 380.895Z" fill="black" stroke="black" stroke-width="2" stroke-miterlimit="10"/>
<path d="M207.066 378.999C207.094 379.249 207.115 379.463 207.127 379.643C207.139 379.824 207.146 380.005 207.151 380.185C207.155 380.366 207.16 380.53 207.167 380.677C207.174 380.824 207.184 380.907 207.198 380.931C207.127 380.926 207.092 380.926 207.022 380.922C206.846 380.637 206.756 380.494 206.583 380.208C206.503 380.08 206.409 379.956 206.299 379.839C206.191 379.721 206.067 379.612 205.928 379.515C205.79 379.419 205.642 379.33 205.487 379.255C205.332 379.179 205.17 379.118 204.999 379.076C204.828 379.032 204.664 379.007 204.504 378.997C202.92 378.902 202.127 378.847 200.546 378.726C200.588 378.74 200.649 378.759 200.726 378.782C200.804 378.805 200.902 378.873 201.024 378.982C201.144 379.093 201.205 379.232 201.205 379.402C200.919 382.556 200.635 385.71 200.349 388.864C200.325 389.112 200.403 389.328 200.579 389.515C200.755 389.702 200.994 389.814 201.299 389.845C201.372 389.858 201.409 389.862 201.482 389.874C201.475 389.948 201.473 389.986 201.466 390.059C199.915 389.952 199.138 389.893 197.589 389.761C197.597 389.688 197.601 389.65 197.608 389.576C197.683 389.576 197.719 389.576 197.794 389.574C197.993 389.581 198.174 389.549 198.333 389.484C198.493 389.419 198.627 389.318 198.732 389.186C198.838 389.053 198.899 388.908 198.913 388.751C199.241 385.391 199.572 382.031 199.901 378.671C198.58 378.566 197.918 378.507 196.599 378.383C196.182 378.343 195.764 378.404 195.344 378.566C194.924 378.728 194.584 378.959 194.326 379.261C194.108 379.517 194 379.645 193.781 379.899C193.711 379.899 193.676 379.897 193.605 379.897C193.662 379.689 193.749 379.347 193.861 378.873C193.974 378.398 194.044 378.11 194.072 378.012C194.063 378.012 194.058 378.009 194.051 378.009C194.068 377.957 194.075 377.93 194.091 377.877C198.408 378.306 202.723 378.637 207.059 378.877C207.057 378.927 207.059 378.95 207.066 378.999Z" fill="black" stroke="black" stroke-width="2" stroke-miterlimit="10"/>
<path d="M228.96 378.881C230.201 378.822 230.823 378.789 232.064 378.713C232.043 378.789 232.034 378.826 232.015 378.902C231.947 378.912 231.912 378.919 231.842 378.929C231.595 378.954 231.391 379.03 231.224 379.152C230.905 379.362 230.758 379.658 230.786 380.038C230.955 382.394 231.124 384.753 231.29 387.109C231.384 388.411 230.694 389.371 229.207 389.967C228.862 390.108 228.47 390.225 228.036 390.322C227.602 390.418 227.123 390.488 226.602 390.528C226.356 390.547 226.126 390.561 225.91 390.568C223.956 390.628 222.482 390.316 221.504 389.654C220.525 388.993 220.037 388.083 220.023 386.937C219.995 384.698 219.969 382.462 219.941 380.223C219.939 380.055 219.894 379.904 219.805 379.769C219.716 379.635 219.599 379.528 219.453 379.45C219.308 379.372 219.141 379.328 218.951 379.318C218.881 379.312 218.848 379.307 218.777 379.301C218.777 379.227 218.777 379.19 218.777 379.116C220.244 379.112 220.978 379.106 222.445 379.078C222.447 379.152 222.447 379.19 222.449 379.263C222.433 379.263 222.423 379.263 222.407 379.263C221.504 379.28 221.051 379.286 220.148 379.293C220.218 379.299 220.253 379.301 220.321 379.307C220.612 379.316 220.849 379.406 221.032 379.578C221.217 379.75 221.311 379.96 221.316 380.208C221.361 382.445 221.405 384.683 221.45 386.92C221.452 387.054 221.462 387.189 221.48 387.325C221.48 387.331 221.48 387.336 221.48 387.342C221.544 388.274 221.961 388.995 222.74 389.499C222.75 389.499 222.754 389.499 222.764 389.499C223.573 390.001 224.704 390.236 226.149 390.187C226.396 390.179 226.64 390.166 226.886 390.145C228.296 390.017 229.338 389.667 230.007 389.11C230.675 388.554 230.978 387.863 230.922 387.044C230.76 384.715 230.598 382.386 230.436 380.057C230.415 379.765 230.286 379.528 230.047 379.343C229.807 379.158 229.516 379.07 229.167 379.074C229.089 379.072 229.049 379.07 228.97 379.066C228.967 378.992 228.965 378.954 228.96 378.881Z" fill="black" stroke="black" stroke-width="2" stroke-miterlimit="10"/>
<path d="M248.911 377.039C251.156 376.733 253.097 376.985 254.769 377.816C256.445 378.648 257.477 379.868 257.831 381.502C258.188 383.136 257.822 384.601 256.705 385.889C255.586 387.174 253.972 387.978 251.891 388.272C249.655 388.591 247.407 388.875 245.157 389.123C245.147 389.049 245.14 389.011 245.131 388.938C245.204 388.923 245.239 388.915 245.312 388.9C245.617 388.854 245.851 388.734 246.018 388.539C246.184 388.344 246.248 388.123 246.21 387.877C245.753 384.818 245.295 381.756 244.84 378.696C244.802 378.45 244.68 378.253 244.474 378.1C244.267 377.949 244.019 377.883 243.73 377.904C243.66 377.907 243.625 377.907 243.554 377.907C243.545 377.833 243.538 377.795 243.528 377.722C245.685 377.476 246.762 377.34 248.911 377.039ZM251.839 387.97C253.502 387.735 254.784 387.016 255.654 385.834C256.524 384.65 256.783 383.276 256.454 381.716C256.126 380.156 255.246 378.975 253.84 378.152C252.435 377.329 250.818 377.052 248.958 377.304C247.522 377.499 246.804 377.592 245.365 377.764C245.422 377.757 245.49 377.757 245.565 377.766C245.64 377.774 245.75 377.82 245.896 377.904C246.041 377.988 246.135 378.114 246.175 378.278C246.712 381.693 247.247 385.107 247.785 388.52C249.406 388.316 250.218 388.205 251.839 387.97Z" fill="black" stroke="black" stroke-width="2" stroke-miterlimit="10"/>
<path d="M272.13 372.835C271.851 372.917 271.646 373.062 271.52 373.274C271.393 373.486 271.367 373.711 271.438 373.95C272.343 376.93 273.247 379.912 274.152 382.892C274.225 383.131 274.38 383.312 274.619 383.434C274.859 383.556 275.131 383.587 275.436 383.522C275.511 383.511 275.546 383.505 275.621 383.493C275.642 383.564 275.654 383.6 275.677 383.671C274.15 384.049 273.385 384.232 271.855 384.583C271.834 384.511 271.825 384.475 271.804 384.402C271.874 384.379 271.909 384.366 271.98 384.343C272.278 384.263 272.496 384.116 272.637 383.902C272.775 383.69 272.808 383.463 272.737 383.224C271.855 380.238 270.973 377.251 270.091 374.265C270.042 374.101 269.957 373.965 269.833 373.856C269.708 373.744 269.565 373.669 269.401 373.625C269.237 373.583 269.061 373.576 268.873 373.608C268.803 373.616 268.768 373.623 268.697 373.631C268.676 373.56 268.667 373.524 268.646 373.45C270.086 373.119 270.806 372.949 272.242 372.594C272.263 372.665 272.275 372.701 272.299 372.772C272.231 372.799 272.195 372.812 272.13 372.835Z" fill="black" stroke="black" stroke-width="2" stroke-miterlimit="10"/>
<path d="M290.4 367.169C291.496 366.795 292.561 366.592 293.608 366.56C294.654 366.531 295.588 366.655 296.411 366.94C297.235 367.226 297.96 367.627 298.587 368.146C299.213 368.667 299.694 369.278 300.029 369.981C300.365 370.685 300.522 371.42 300.496 372.188C300.471 372.957 300.266 373.704 299.882 374.433C299.497 375.162 298.889 375.853 298.059 376.504C297.228 377.155 296.226 377.682 295.06 378.081C295.051 378.083 295.046 378.085 295.039 378.089C293.873 378.488 292.737 378.692 291.637 378.702C290.536 378.713 289.574 378.56 288.748 378.245C287.923 377.932 287.216 377.493 286.63 376.936C286.041 376.38 285.611 375.737 285.337 375.013C285.062 374.288 284.964 373.547 285.039 372.785C285.114 372.024 285.351 371.294 285.75 370.59C286.146 369.887 286.745 369.238 287.542 368.637C288.34 368.037 289.283 367.551 290.379 367.176C290.389 367.173 290.393 367.171 290.4 367.169ZM298.741 374.523C299.262 373.217 299.192 371.884 298.563 370.533C298.098 369.536 297.406 368.73 296.496 368.104C296.407 368.051 296.404 367.992 296.487 367.925C296.529 367.887 296.55 367.869 296.59 367.833C296.681 367.751 296.674 367.68 296.566 367.623C295.222 366.976 293.706 366.795 292.003 367.066C291.989 367.071 291.975 367.077 291.961 367.081C291.48 367.152 290.999 367.272 290.513 367.438C290.504 367.44 290.501 367.442 290.492 367.444C288.687 368.062 287.481 369.097 286.846 370.573C286.304 371.833 286.285 373.161 286.827 374.553C287.223 375.573 287.859 376.413 288.741 377.064C288.833 377.132 288.835 377.197 288.744 377.26C288.699 377.295 288.676 377.314 288.631 377.35C288.53 377.43 288.533 377.499 288.641 377.562C289.283 377.896 290.001 378.123 290.797 378.236C291.592 378.35 292.439 378.337 293.338 378.192C293.357 378.198 293.373 378.198 293.389 378.192C293.896 378.119 294.408 377.995 294.924 377.818C294.933 377.816 294.938 377.814 294.945 377.81C296.86 377.155 298.136 376.048 298.741 374.523Z" fill="black" stroke="black" stroke-width="2" stroke-miterlimit="10"/>
<path d="M339.652 349.428C340.574 348.958 341.456 348.614 342.308 348.399C343.159 348.185 343.905 348.12 344.551 348.213C345.196 348.305 345.689 348.551 346.031 348.954C346.653 349.689 346.73 350.59 346.245 351.652C345.759 352.715 344.825 353.702 343.446 354.59C341.449 355.882 339.419 357.142 337.369 358.364C337.322 358.303 337.301 358.272 337.254 358.209C337.315 358.164 337.345 358.141 337.406 358.097C337.671 357.925 337.833 357.715 337.894 357.467C337.955 357.219 337.908 356.995 337.753 356.789C335.829 354.227 333.903 351.665 331.979 349.103C331.824 348.897 331.613 348.771 331.346 348.723C331.076 348.675 330.811 348.723 330.548 348.868C330.482 348.899 330.449 348.914 330.384 348.945C330.33 348.889 330.304 348.859 330.25 348.803C332.355 347.543 333.401 346.896 335.475 345.569C336.611 344.842 337.704 344.428 338.769 344.33C339.835 344.233 340.621 344.479 341.125 345.084C341.576 345.625 341.669 346.289 341.4 347.079C341.13 347.87 340.546 348.656 339.652 349.428ZM335.632 345.802C334.185 346.728 333.455 347.184 331.993 348.076C332.012 348.078 332.038 348.068 332.071 348.049C332.104 348.03 332.16 348.011 332.242 347.996C332.324 347.979 332.406 347.971 332.488 347.969C332.571 347.967 332.664 347.984 332.768 348.021C332.871 348.059 332.955 348.12 333.019 348.204C334.128 349.659 334.682 350.386 335.792 351.841C336.475 351.421 336.817 351.207 337.498 350.781C337.826 350.558 337.988 350.447 338.317 350.222C339.318 349.586 339.968 348.855 340.264 348.04C340.56 347.228 340.449 346.512 339.943 345.896C339.497 345.352 338.863 345.077 338.049 345.06C337.23 345.046 336.428 345.291 335.632 345.802ZM343.131 354.462C344.161 353.801 344.83 353.024 345.13 352.146C345.431 351.268 345.299 350.495 344.743 349.827C344.384 349.395 343.851 349.141 343.152 349.059C342.453 348.977 341.66 349.076 340.771 349.349C339.884 349.622 338.985 350.048 338.073 350.623C336.946 351.335 336.381 351.686 335.248 352.379C335.306 352.356 335.374 352.329 335.447 352.299C335.52 352.268 335.649 352.261 335.834 352.276C336.02 352.293 336.172 352.366 336.292 352.497C337.585 354.191 338.23 355.038 339.523 356.732C340.97 355.84 341.693 355.386 343.131 354.462Z" fill="black" stroke="black" stroke-width="2" stroke-miterlimit="10"/>
<path d="M354.614 331.681C356.031 330.411 358.382 329.277 360.381 329.063C362.378 328.849 364.072 329.271 365.379 330.453C366.686 331.635 367.242 333.082 367.005 334.8C366.768 336.518 365.792 338.103 364.088 339.508C362.268 341.016 360.412 342.498 358.53 343.945C358.476 343.889 358.448 343.861 358.394 343.805C358.45 343.752 358.478 343.727 358.535 343.674C358.781 343.469 358.922 343.238 358.952 342.982C358.983 342.725 358.908 342.505 358.727 342.318C356.465 339.987 354.206 337.658 351.944 335.327C351.763 335.14 351.533 335.039 351.256 335.025C350.98 335.01 350.717 335.092 350.468 335.268C350.405 335.308 350.374 335.327 350.311 335.367C350.257 335.31 350.229 335.283 350.175 335.226C351.965 333.836 352.854 333.128 354.614 331.681ZM363.858 339.286C365.222 338.162 365.944 336.837 366.017 335.348C366.09 333.859 365.494 332.549 364.257 331.415C363.021 330.281 361.51 329.779 359.741 329.871C357.972 329.964 356.341 330.634 354.816 331.881C353.638 332.843 353.044 333.319 351.852 334.256C351.899 334.218 351.96 334.182 352.033 334.149C352.106 334.115 352.232 334.092 352.416 334.084C352.599 334.075 352.758 334.128 352.894 334.246C355.44 336.831 357.986 339.416 360.531 342.001C361.871 340.928 362.535 340.386 363.858 339.286Z" fill="black" stroke="black" stroke-width="2" stroke-miterlimit="10"/>
<path d="M284.903 215.994L284.931 153.956V153.129C284.931 112.597 242.419 114.252 242.419 114.252C242.419 114.252 199.906 112.597 199.906 153.129V153.956L199.944 233.458V235.651L199.906 301.139C199.906 303.762 201.051 306.326 203.205 308.113C208.705 312.639 214.24 310.495 217.809 308.023C220.312 306.295 221.764 303.613 221.764 300.784V156.197C221.764 156.197 223.013 134.93 242.421 133.275C261.83 134.93 263.078 156.197 263.078 156.197V235.648H284.899H320.056V215.994H284.903Z" fill="#131313" stroke="#131313" stroke-width="26" stroke-miterlimit="10"/>
<path d="M396.76 225.094C396.76 225.094 396.76 243.292 377.352 246.6H306.188V203.586H377.352C396.76 206.895 396.76 225.094 396.76 225.094Z" fill="#1F1F1F"/>
<path d="M177.724 150.334V293.949H236.874V150.334H177.724ZM186.966 283.503V162.52H199.906V283.505H186.966V283.503Z" fill="#131313"/>
<path d="M414.569 218.477C414.532 219.052 414.478 219.627 414.422 220.201C414.267 221.816 414.079 223.426 413.87 225.035C413.546 227.526 413.171 230.01 412.751 232.488C412.209 235.676 411.592 238.855 410.905 242.02C410.093 245.743 409.182 249.448 408.166 253.131C407.035 257.222 405.778 261.285 404.372 265.309C402.873 269.605 401.212 273.858 399.363 278.043C397.439 282.401 395.313 286.687 392.951 290.868C390.56 295.099 387.927 299.224 385.013 303.187C382.068 307.189 378.838 311.026 375.285 314.615C374.427 315.484 373.547 316.337 372.65 317.175C372.573 317.248 372.697 317.359 372.775 317.286C376.437 313.863 379.788 310.177 382.845 306.309C385.926 302.414 388.711 298.336 391.243 294.136C393.725 290.015 395.963 285.777 397.993 281.464C399.978 277.245 401.761 272.953 403.371 268.608C404.891 264.507 406.254 260.361 407.479 256.18C408.593 252.379 409.591 248.549 410.482 244.702C411.252 241.377 411.939 238.038 412.545 234.687C413.026 232.03 413.453 229.367 413.826 226.696C414.084 224.846 414.314 222.992 414.506 221.135C414.565 220.575 414.619 220.014 414.668 219.451C414.691 219.174 414.762 218.863 414.738 218.584C414.736 218.55 414.743 218.512 414.745 218.477C414.752 218.376 414.576 218.376 414.569 218.477Z" fill="#FFD93B"/>
<defs>
<linearGradient id="paint0_linear_30_16" x1="398.34" y1="41.655" x2="34.8224" y2="281.15" gradientUnits="userSpaceOnUse">
<stop stop-color="#FFD93B"/>
<stop offset="0.7242" stop-color="#F4A10C"/>
</linearGradient>
</defs>
</svg>
